<?xml version="1.0" standalone="no"?>
<!DOCTYPE svg PUBLIC "-//W3C//DTD SVG 20010904//EN"
 "http://www.w3.org/TR/2001/REC-SVG-20010904/DTD/svg10.dtd">
<svg version="1.0" xmlns="http://www.w3.org/2000/svg"
 width="382.000000pt" height="85.000000pt" viewBox="0 0 382.000000 85.000000"
 preserveAspectRatio="xMidYMid meet">

<g transform="translate(0.000000,85.000000) scale(0.100000,-0.100000)"
fill="#000000" stroke="none">
<path d="M107 738 c-63 -72 -95 -119 -80 -117 4 0 39 36 76 80 l68 79 54 0
c50 0 56 -2 70 -30 43 -83 208 -79 247 5 10 22 17 25 63 25 50 0 54 -2 101
-53 27 -29 66 -72 86 -97 23 -28 37 -39 38 -29 0 15 -136 182 -165 201 -5 4
-36 8 -67 8 -55 0 -57 -1 -75 -37 -22 -46 -53 -63 -113 -63 -54 0 -87 20 -106
66 -14 33 -16 34 -73 34 l-59 0 -65 -72z"/>
<path d="M3491 677 c-22 -27 10 -64 45 -50 23 9 14 57 -12 61 -11 2 -26 -3
-33 -11z"/>
<path d="M970 673 c0 -5 25 -101 56 -215 56 -204 58 -208 84 -208 26 0 28 4
70 158 23 86 46 163 49 169 4 7 27 -63 52 -155 45 -167 45 -167 74 -167 l28 0
57 208 c46 165 55 210 44 214 -8 3 -20 3 -26 0 -7 -2 -33 -82 -57 -176 -24
-94 -45 -170 -47 -169 -1 2 -21 73 -44 158 -22 85 -43 163 -46 173 -3 10 -15
17 -29 17 -32 0 -35 -8 -81 -187 -21 -84 -41 -153 -44 -153 -3 0 -25 77 -49
170 -41 160 -45 170 -67 170 -13 0 -24 -3 -24 -7z"/>
<path d="M2440 599 l0 -82 -26 28 c-23 25 -30 27 -79 23 -86 -7 -125 -57 -125
-160 0 -98 54 -163 137 -163 37 0 49 5 69 28 l24 28 0 -25 c0 -21 5 -26 25
-26 l25 0 0 215 0 215 -25 0 c-25 0 -25 -1 -25 -81z m-33 -93 c26 -22 28 -30
28 -94 0 -61 -3 -74 -24 -96 -24 -26 -68 -34 -106 -20 -26 10 -45 60 -45 119
0 49 4 60 29 86 37 36 79 38 118 5z"/>
<path d="M3160 465 l0 -215 25 0 c25 0 25 0 25 95 l0 95 90 0 c89 0 90 0 90
25 0 25 -1 25 -90 25 l-90 0 0 70 0 70 100 0 100 0 0 25 0 25 -125 0 -125 0 0
-215z"/>
<path d="M3657 643 c-4 -3 -7 -21 -7 -40 0 -26 -4 -33 -20 -33 -13 0 -20 -7
-20 -20 0 -13 7 -20 20 -20 19 0 20 -7 20 -99 0 -147 18 -181 93 -181 30 0 34
3 30 20 -3 11 -13 20 -23 20 -41 0 -50 26 -50 136 l0 104 35 0 c28 0 35 4 35
20 0 16 -7 20 -35 20 -34 0 -35 1 -35 40 0 32 -4 40 -18 40 -10 0 -22 -3 -25
-7z"/>
<path d="M1594 560 c-52 -21 -90 -106 -80 -178 9 -66 39 -108 91 -128 107 -41
195 29 195 156 0 94 -58 160 -138 159 -26 0 -57 -4 -68 -9z m122 -54 c24 -20
28 -33 32 -88 4 -58 2 -67 -23 -96 -53 -63 -145 -33 -160 52 -11 56 2 102 36
130 38 32 80 33 115 2z"/>
<path d="M1880 410 l0 -160 25 0 25 0 0 115 c0 110 1 117 25 140 31 32 74 33
103 2 20 -21 22 -34 22 -140 l0 -117 25 0 25 0 0 120 c0 165 -19 200 -109 200
-28 0 -48 -8 -70 -26 l-31 -26 0 26 c0 19 -5 26 -20 26 -19 0 -20 -7 -20 -160z"/>
<path d="M2654 560 c-77 -31 -106 -171 -53 -256 48 -78 198 -80 240 -2 8 15 6
20 -12 26 -16 6 -27 3 -45 -15 -48 -48 -144 -19 -160 50 l-6 27 116 0 116 0 0
40 c0 83 -53 140 -129 139 -25 0 -56 -4 -67 -9z m121 -55 c14 -13 25 -36 25
-50 0 -25 -1 -25 -84 -25 -47 0 -87 4 -91 9 -9 16 17 62 44 76 40 22 79 18
106 -10z"/>
<path d="M2930 410 l0 -160 25 0 25 0 0 113 c0 132 9 153 71 163 29 5 39 11
39 25 0 27 -57 25 -87 -3 l-23 -21 0 21 c0 17 -6 22 -25 22 l-25 0 0 -160z"/>
<path d="M3490 410 l0 -160 25 0 25 0 0 160 0 160 -25 0 -25 0 0 -160z"/>
<path d="M134 499 l-41 -40 -43 36 c-23 19 -45 33 -48 30 -7 -6 34 -50 71 -77
l28 -20 20 26 c11 14 25 26 30 26 5 0 9 -82 9 -195 0 -123 4 -195 10 -195 6 0
10 82 10 225 0 124 -1 225 -3 225 -1 0 -21 -18 -43 -41z"/>
<path d="M650 304 c0 -154 3 -233 10 -229 6 4 10 86 10 213 l0 206 35 -34 35
-34 47 44 c26 25 49 46 51 47 2 1 2 6 1 12 -2 6 -26 -8 -53 -31 l-49 -42 -39
42 c-21 23 -41 42 -43 42 -3 0 -5 -106 -5 -236z"/>
<path d="M280 30 c20 -13 270 -13 290 0 10 6 -38 10 -145 10 -107 0 -155 -4
-145 -10z"/>
</g>
</svg>
